<?xml version="1.0" encoding="utf-8"?>
<!-- Svg Vector Icons : http://www.onlinewebfonts.com/icon -->
<!DOCTYPE svg PUBLIC "-//W3C//DTD SVG 1.1//EN" "http://www.w3.org/Graphics/SVG/1.1/DTD/svg11.dtd">
<svg version="1.1" xmlns="http://www.w3.org/2000/svg" xmlns:xlink="http://www.w3.org/1999/xlink" x="0px" y="0px" viewBox="0 0 1000 1000" enable-background="new 0 0 1000 1000" xml:space="preserve">
<metadata> Svg Vector Icons : http://www.onlinewebfonts.com/icon </metadata>
<g><path fill="#cbcbcb" d="M92.9,716.8h54.7v82.8H90.1c-44.2,0-80.1-35.9-80.1-80.1V90.1C10,45.9,45.9,10,90.1,10h275.4c44.2,0,80.1,35.9,80.1,80.1v-0.6c0,25,20.3,45.2,45.2,45.2h332.9c44.2,0,80.1,35.9,80.1,80.1v230.4h-82.8V217.6H490.8c-69.5,0-126.2-55.6-128-124.7h-270V716.8z M990,573.5v336.4c0,44.2-35.9,80.1-80.1,80.1H275.8c-44.2,0-80.1-35.9-80.1-80.1V573.5c0-44.2,35.9-80.1,80.1-80.1h101.3l37-98.1c6.9-18.5,28.8-33.5,48.5-33.5h238.7c19.8,0,41.6,15.1,48.6,33.6l37,98.1h123C954.1,493.4,990,529.3,990,573.5z M805.8,709.5c0-117.4-95.5-212.9-212.9-212.9c-117.4,0-212.9,95.5-212.9,212.9s95.5,212.9,212.9,212.9C710.3,922.4,805.8,826.9,805.8,709.5z M592.9,579.1c-71.9,0-130.4,58.5-130.4,130.4S521,839.8,592.9,839.8s130.4-58.5,130.4-130.4S664.7,579.1,592.9,579.1z"/></g>
</svg>